<?xml version="1.0" encoding="UTF-8" standalone="no"?>
<!-- Created with Inkscape (http://www.inkscape.org/) -->

<svg
   width="255.99998"
   height="255.99998"
   viewBox="0 0 67.733328 67.733329"
   version="1.1"
   id="svg1"
   inkscape:version="1.4.3 (0d15f75042, 2025-12-25)"
   sodipodi:docname="icon.svg"
   inkscape:export-filename="dev.jtsimon.kratio.svg"
   inkscape:export-xdpi="96"
   inkscape:export-ydpi="96"
   xmlns:inkscape="http://www.inkscape.org/namespaces/inkscape"
   xmlns:sodipodi="http://sodipodi.sourceforge.net/DTD/sodipodi-0.dtd"
   xmlns="http://www.w3.org/2000/svg"
   xmlns:svg="http://www.w3.org/2000/svg">
  <sodipodi:namedview
     id="namedview1"
     pagecolor="#ffffff"
     bordercolor="#000000"
     borderopacity="0.25"
     inkscape:showpageshadow="2"
     inkscape:pageopacity="0.0"
     inkscape:pagecheckerboard="0"
     inkscape:deskcolor="#d1d1d1"
     inkscape:document-units="mm"
     inkscape:zoom="2.0132505"
     inkscape:cx="134.85654"
     inkscape:cy="146.28086"
     inkscape:window-width="1920"
     inkscape:window-height="1008"
     inkscape:window-x="0"
     inkscape:window-y="0"
     inkscape:window-maximized="1"
     inkscape:current-layer="layer1">
    <inkscape:page
       x="0"
       y="0"
       width="67.73333"
       height="67.73333"
       id="page2"
       margin="0"
       bleed="0" />
  </sodipodi:namedview>
  <defs
     id="defs1" />
  <g
     inkscape:label="Layer 1"
     inkscape:groupmode="layer"
     id="layer1">
    <rect
       style="fill:#aa4400;stroke-width:3.52112"
       id="rect1"
       width="58.410942"
       height="58.410942"
       x="4.6611958"
       y="4.6611958"
       rx="10"
       ry="10" />
    <path
       style="font-weight:bold;font-size:26.8111px;line-height:1.15;font-family:'Liberation Mono';-inkscape-font-specification:'Liberation Mono Bold';text-align:center;letter-spacing:-4.63815px;text-anchor:middle;fill:#ffffff;stroke-width:3"
       d="m 27.416435,38.926477 v 3.75722 h -3.508484 v -3.75722 h -8.39156 v -2.762276 l 7.789358,-11.140745 h 4.110686 v 11.166927 h 2.461175 v 2.736094 z m -3.508484,-8.116641 q 0,-0.706934 0.03927,-1.531689 0.05237,-0.824756 0.07855,-1.0604 -0.340376,0.733116 -1.230588,2.1208 l -4.189234,5.851836 h 5.301999 z m 8.283021,11.873861 v -3.992864 h 3.783402 v 3.992864 z m 0,-10.211259 v -3.992864 h 3.783402 v 3.992864 z m 20.025968,5.288908 q 0,2.474267 -1.780425,3.848859 -1.767333,1.374593 -4.896167,1.374593 -3.011013,0 -4.778346,-1.309136 -1.754242,-1.322227 -2.055343,-3.809585 l 3.744128,-0.327284 q 0.327284,2.461175 3.076469,2.461175 1.374593,0 2.146983,-0.654567 0.77239,-0.66766 0.77239,-1.806608 0,-1.138948 -0.955669,-1.74115 -0.942578,-0.602203 -2.709911,-0.602203 h -1.282953 v -2.971738 h 1.204405 q 1.597145,0 2.448084,-0.602202 0.864029,-0.615294 0.864029,-1.701877 0,-0.981852 -0.720024,-1.610237 -0.706934,-0.628385 -1.898247,-0.628385 -1.125857,0 -1.858973,0.536746 -0.733116,0.523654 -0.837847,1.675694 l -3.678671,-0.261828 q 0.28801,-2.343353 1.976795,-3.613214 1.701876,-1.269862 4.464153,-1.269862 1.93752,0 3.351387,0.589111 1.426958,0.589111 2.173165,1.662603 0.759299,1.0604 0.759299,2.461175 0,1.610237 -1.021126,2.683728 -1.021126,1.073491 -2.919373,1.440049 v 0.05237 q 2.055344,0.235644 3.233566,1.34841 1.178222,1.099674 1.178222,2.775367 z"
       id="text2"
       aria-label="4:3" />
  </g>
</svg>
